<?xml version="1.0" encoding="UTF-8"?>
<svg id="Calque_1" data-name="Calque 1" xmlns="http://www.w3.org/2000/svg" version="1.1" viewBox="0 0 347.91 500.04">
  <defs>
    <style>
      .cls-1 {
        fill: #fff;
        stroke-width: 0px;
      }
    </style>
  </defs>
  <g>
    <polygon class="cls-1" points="197.6 214.2 318.09 162 318.09 114.85 150.26 187.47 150.33 187.64 150.33 230.84 150.33 449.47 175.59 449.47 197.57 449.47 197.57 288.73 223.22 277.62 223.22 236.61 197.57 247.73 197.57 230.84 197.6 214.2"/>
    <polyline class="cls-1" points="150.35 288.73 124.7 277.62 124.7 236.61 150.35 247.73"/>
  </g>
  <path class="cls-1" d="M262.34,110.85c-13.86-35.28-48.29-60.29-88.38-60.29-52.32,0-94.87,42.55-94.87,94.87,0,6.66.65,13.26,2,19.66-31.23,16.04-51.28,48.24-51.28,84.4,0,52.32,42.55,94.87,94.87,94.87v-32.34c-34.47,0-62.54-28.07-62.54-62.54,0-27.42,17.46-51.41,43.52-59.69l16.62-5.3-6.47-16.17c-2.91-7.24-4.4-14.94-4.4-22.89,0-34.47,28.07-62.54,62.54-62.54,26.83,0,49.81,17.04,58.69,40.82l29.69-12.87Z"/>
  <path class="cls-1" d="M302.23,196.85l-30.41,13.18c8.83,10.85,13.95,24.64,13.95,39.46,0,34.47-28.07,62.54-62.54,62.54v32.34c52.32,0,94.87-42.55,94.87-94.87,0-19.3-5.73-37.45-15.88-52.65Z"/>
</svg>