<?xml version="1.0" encoding="UTF-8"?>
<svg id="Calque_1" data-name="Calque 1" xmlns="http://www.w3.org/2000/svg" version="1.1" viewBox="0 0 904.26 540.69">
  <defs>
    <style>
      .cls-1 {
        fill: #262614;
        stroke-width: 0px;
      }
    </style>
  </defs>
  <path class="cls-1" d="M271.23,353.45c0-43.86,26.09-69.39,68.01-69.39s67.45,25.54,67.45,69.39-25.54,69.68-67.45,69.68-68.01-26.37-68.01-69.68ZM308.98,353.17c0,23.87,8.6,37.76,29.98,37.76s29.98-13.88,29.98-37.76-9.16-37.47-29.98-37.47-29.98,13.6-29.98,37.47Z"/>
  <path class="cls-1" d="M419.4,419.24v-131.58h35.81v42.75h3.05c8.33-36.64,19.43-44.14,36.64-44.14h3.89v43.3h-7.78c-26.37,0-33.86,7.78-33.86,31.09v58.57h-37.76Z"/>
  <path class="cls-1" d="M510.02,356.23c0-45.52,24.7-72.17,67.45-72.17,40.53,0,59.68,23.87,59.68,60.23,0,5.55-.28,10.83-.83,17.77h-89.11c2.22,21.1,11.94,30.54,29.98,30.54s23.32-8.33,26.65-18.32l31.64,8.6c-5.83,22.77-21.1,39.97-58.57,39.97-39.7,0-66.9-21.93-66.9-66.62ZM547.49,342.9h54.96c-.55-20.54-9.16-30.54-26.09-30.54s-26.93,8.88-28.87,30.54Z"/>
  <path class="cls-1" d="M650.8,381.49l33.87-6.94c3.33,14.43,12.21,21.93,28.59,21.93,12.77,0,19.16-4.17,19.43-12.77,0-8.05-5.27-12.49-29.42-17.21-36.08-7.78-48.3-19.71-48.3-42.19,0-25.26,18.04-40.25,55.24-40.25s50.8,14.99,55.52,38.03l-33.58,6.94c-3.05-13.6-9.16-18.87-22.77-18.87-12.49,0-18.59,4.16-18.59,11.94,0,7.21,3.6,12.49,27.2,17.21,41.09,8.6,51.08,22.2,51.08,42.75,0,25.54-16.93,41.08-56.63,41.08-44.41,0-58.01-17.77-61.62-41.64Z"/>
  <path class="cls-1" d="M795.87,317.64h-16.1v-29.98h16.1v-33.86h37.75v33.86h34.7v29.98h-34.7v54.13c0,10.55,3.89,15.82,15.27,15.82,5.83,0,12.21-1.67,17.21-3.33l4.17,33.86c-10,3.05-16.65,5-31.09,5-30.54,0-43.31-20.26-43.31-45.25v-60.24Z"/>
  <g>
    <path class="cls-1" d="M279.64,507.99v-39.38h25.85v3.44h-21.97v14.48h18.53v3.22h-18.53v18.25h-3.88Z"/>
    <path class="cls-1" d="M322.07,508.55c-2.11,0-4.04-.4-5.8-1.19-1.76-.79-3.27-1.88-4.55-3.25-1.28-1.38-2.27-2.96-2.97-4.74-.7-1.78-1.05-3.67-1.05-5.65s.35-3.98,1.05-5.76c.7-1.78,1.7-3.36,3-4.74,1.29-1.38,2.82-2.46,4.58-3.25,1.76-.79,3.67-1.19,5.74-1.19s3.98.4,5.71,1.19c1.74.79,3.25,1.88,4.55,3.25,1.29,1.38,2.29,2.96,3,4.74s1.05,3.71,1.05,5.76-.35,3.87-1.05,5.65c-.7,1.78-1.69,3.37-2.97,4.74-1.28,1.38-2.79,2.46-4.55,3.25-1.76.79-3.67,1.19-5.74,1.19ZM311.53,493.76c0,2.13.47,4.07,1.41,5.81.94,1.74,2.21,3.12,3.8,4.13s3.35,1.51,5.27,1.51,3.68-.51,5.27-1.54c1.59-1.03,2.87-2.43,3.83-4.21.96-1.78,1.44-3.74,1.44-5.87s-.48-4.02-1.44-5.78c-.96-1.76-2.24-3.16-3.83-4.19-1.59-1.03-3.35-1.54-5.27-1.54s-3.68.53-5.27,1.6-2.86,2.47-3.8,4.21c-.94,1.74-1.41,3.7-1.41,5.87Z"/>
    <path class="cls-1" d="M357.13,482.42c-2.52.07-4.72.78-6.63,2.11-1.91,1.33-3.25,3.16-4.02,5.49v17.97h-3.77v-28.79h3.55v6.82c1-2.03,2.32-3.68,3.97-4.94,1.65-1.26,3.39-1.96,5.24-2.11.37-.04.69-.06.97-.06s.51.02.69.06v3.44Z"/>
    <path class="cls-1" d="M373.77,508.55c-2.07,0-3.99-.4-5.77-1.19-1.77-.79-3.31-1.88-4.6-3.26-1.29-1.38-2.3-2.97-3.02-4.78-.72-1.8-1.08-3.74-1.08-5.8,0-2.68.62-5.14,1.86-7.38s2.95-4.03,5.13-5.37c2.18-1.34,4.66-2.01,7.43-2.01s5.33.68,7.46,2.04c2.13,1.36,3.8,3.15,5.02,5.37,1.22,2.22,1.83,4.66,1.83,7.3v.85c0,.28-.02.49-.05.63h-24.74c.18,2.06.77,3.89,1.75,5.49.98,1.6,2.25,2.87,3.83,3.81,1.57.94,3.28,1.41,5.13,1.41s3.67-.48,5.35-1.44c1.68-.96,2.86-2.22,3.52-3.77l3.27.89c-.59,1.37-1.5,2.61-2.72,3.72s-2.65,1.97-4.3,2.58c-1.65.61-3.41.92-5.3.92ZM363.12,492.24h21.36c-.15-2.09-.71-3.92-1.69-5.49s-2.26-2.81-3.83-3.71c-1.57-.9-3.3-1.35-5.19-1.35s-3.61.45-5.16,1.35c-1.55.9-2.82,2.14-3.8,3.73-.98,1.59-1.54,3.41-1.69,5.46Z"/>
    <path class="cls-1" d="M406.39,508.55c-2.11,0-4.04-.4-5.8-1.19-1.76-.79-3.29-1.89-4.6-3.28-1.31-1.4-2.33-3-3.05-4.8-.72-1.8-1.08-3.71-1.08-5.74,0-2.72.61-5.2,1.83-7.45s2.92-4.03,5.1-5.35c2.18-1.32,4.7-1.99,7.54-1.99,2.7,0,5.08.62,7.16,1.86,2.07,1.24,3.61,2.91,4.6,5.02l-3.66,1.17c-.81-1.48-1.95-2.63-3.41-3.47-1.46-.83-3.08-1.25-4.85-1.25-1.92,0-3.68.5-5.27,1.49s-2.86,2.35-3.8,4.08c-.94,1.73-1.41,3.69-1.41,5.89s.48,4.13,1.44,5.89c.96,1.76,2.24,3.17,3.83,4.21,1.59,1.05,3.35,1.57,5.27,1.57,1.26,0,2.47-.22,3.63-.67,1.17-.44,2.18-1.04,3.05-1.8.87-.76,1.45-1.58,1.75-2.47l3.72,1.11c-.52,1.37-1.38,2.6-2.58,3.69-1.2,1.09-2.61,1.94-4.22,2.55s-3.34.92-5.19.92Z"/>
    <path class="cls-1" d="M421.98,499.73c0-1.8.52-3.35,1.55-4.66,1.04-1.3,2.47-2.32,4.3-3.03,1.83-.72,3.95-1.08,6.35-1.08,1.41,0,2.87.11,4.38.33,1.52.22,2.87.55,4.05,1v-2.43c0-2.42-.72-4.35-2.16-5.79-1.44-1.43-3.44-2.15-5.99-2.15-1.55,0-3.08.29-4.58.86s-3.06,1.41-4.69,2.52l-1.44-2.66c1.89-1.29,3.74-2.26,5.55-2.91,1.81-.65,3.66-.97,5.55-.97,3.55,0,6.36,1.01,8.43,3.03,2.07,2.02,3.11,4.82,3.11,8.38v13.28c0,.51.11.89.33,1.13.22.24.57.38,1.05.41v3c-.41.04-.76.07-1.05.11-.3.04-.52.04-.67,0-.92-.04-1.63-.33-2.11-.89-.48-.55-.74-1.15-.78-1.78l-.05-2.11c-1.29,1.66-2.98,2.95-5.05,3.85-2.07.91-4.18,1.36-6.32,1.36-1.85,0-3.52-.4-5.02-1.18-1.5-.79-2.66-1.86-3.49-3.2-.83-1.34-1.25-2.82-1.25-4.44ZM441.34,501.93c.41-.51.72-1.01.94-1.48.22-.48.33-.9.33-1.26v-4.18c-1.26-.48-2.56-.84-3.91-1.1-1.35-.26-2.71-.38-4.08-.38-2.7,0-4.88.53-6.55,1.59-1.66,1.06-2.5,2.51-2.5,4.34,0,1.06.28,2.06.83,3,.55.93,1.37,1.7,2.44,2.31,1.07.6,2.33.91,3.77.91,1.81,0,3.5-.35,5.08-1.04,1.57-.7,2.78-1.59,3.63-2.69Z"/>
    <path class="cls-1" d="M464.02,508.55c-2.37,0-4.57-.39-6.6-1.17-2.03-.78-3.79-1.96-5.27-3.55l1.55-2.66c1.63,1.52,3.26,2.62,4.91,3.3,1.65.68,3.39,1.03,5.24,1.03,2.26,0,4.09-.45,5.49-1.35,1.4-.9,2.11-2.19,2.11-3.88,0-1.14-.34-2.01-1.03-2.62-.68-.61-1.66-1.1-2.94-1.49-1.28-.39-2.8-.8-4.58-1.24-2-.55-3.67-1.13-5.02-1.74-1.35-.61-2.37-1.38-3.05-2.32-.69-.94-1.03-2.16-1.03-3.67,0-1.88.47-3.43,1.41-4.66.94-1.23,2.24-2.17,3.88-2.81,1.64-.64,3.48-.96,5.52-.96,2.22,0,4.18.35,5.88,1.05,1.7.7,3.09,1.68,4.16,2.94l-1.83,2.55c-1.04-1.18-2.27-2.06-3.69-2.63-1.42-.57-3-.86-4.74-.86-1.18,0-2.31.16-3.38.47-1.07.31-1.95.83-2.63,1.54-.68.72-1.03,1.7-1.03,2.95,0,1.03.26,1.83.78,2.4.52.57,1.29,1.05,2.33,1.43,1.04.39,2.31.8,3.83,1.24,2.18.59,4.09,1.19,5.71,1.79,1.63.61,2.88,1.39,3.77,2.34s1.33,2.3,1.33,4.02c0,2.68-1.02,4.78-3.05,6.28-2.03,1.51-4.71,2.26-8.04,2.26Z"/>
    <path class="cls-1" d="M495.2,506.83c-.3.11-.76.31-1.39.61-.63.3-1.39.55-2.27.78s-1.85.33-2.88.33-2.08-.2-3.02-.61c-.94-.41-1.69-1.03-2.25-1.87-.55-.84-.83-1.87-.83-3.09v-20.78h-3.99v-3h3.99v-9.76h3.77v9.76h6.66v3h-6.66v19.73c.07,1.04.45,1.82,1.14,2.34.68.52,1.47.78,2.36.78,1.04,0,1.98-.17,2.83-.53s1.37-.6,1.55-.75l1,3.05Z"/>
  </g>
  <g>
    <path class="cls-1" d="M547.3,504.47v3.44h-26.46v-39.38h25.96v3.44h-22.08v14.2h19.25v3.27h-19.25v15.03h22.58Z"/>
    <path class="cls-1" d="M563.22,508.46c-2.37,0-4.57-.39-6.6-1.17-2.03-.78-3.79-1.96-5.27-3.55l1.55-2.66c1.63,1.52,3.26,2.62,4.91,3.3,1.65.68,3.39,1.03,5.24,1.03,2.26,0,4.09-.45,5.49-1.35,1.4-.9,2.11-2.19,2.11-3.88,0-1.14-.34-2.01-1.03-2.62-.68-.61-1.66-1.1-2.94-1.49-1.28-.39-2.8-.8-4.58-1.24-2-.55-3.67-1.13-5.02-1.74-1.35-.61-2.37-1.38-3.05-2.32-.69-.94-1.03-2.16-1.03-3.67,0-1.88.47-3.43,1.41-4.66.94-1.23,2.24-2.17,3.88-2.81,1.64-.64,3.48-.96,5.52-.96,2.22,0,4.18.35,5.88,1.05,1.7.7,3.09,1.68,4.16,2.94l-1.83,2.55c-1.04-1.18-2.27-2.06-3.69-2.63-1.42-.57-3-.86-4.74-.86-1.18,0-2.31.16-3.38.47-1.07.31-1.95.83-2.63,1.54-.68.72-1.03,1.7-1.03,2.95,0,1.03.26,1.83.78,2.4.52.57,1.29,1.05,2.33,1.43,1.04.39,2.31.8,3.83,1.24,2.18.59,4.09,1.19,5.71,1.79,1.63.61,2.88,1.39,3.77,2.34s1.33,2.3,1.33,4.02c0,2.68-1.02,4.78-3.05,6.28-2.03,1.51-4.71,2.26-8.04,2.26Z"/>
    <path class="cls-1" d="M594.39,506.74c-.3.11-.76.31-1.39.61-.63.3-1.39.55-2.27.78s-1.85.33-2.88.33-2.08-.2-3.02-.61c-.94-.41-1.69-1.03-2.25-1.87-.55-.84-.83-1.87-.83-3.09v-20.78h-3.99v-3h3.99v-9.76h3.77v9.76h6.66v3h-6.66v19.73c.07,1.04.45,1.82,1.14,2.34.68.52,1.47.78,2.36.78,1.04,0,1.98-.17,2.83-.53s1.37-.6,1.55-.75l1,3.05Z"/>
    <path class="cls-1" d="M599.1,472.96v-5.55h3.77v5.55h-3.77ZM599.1,507.91v-28.9h3.77v28.9h-3.77Z"/>
    <path class="cls-1" d="M654.19,507.91h-3.77v-16.04c0-3.34-.54-5.8-1.61-7.38-1.07-1.58-2.66-2.37-4.77-2.37s-4.13.77-5.85,2.31c-1.72,1.54-2.93,3.53-3.63,5.95v17.53h-3.77v-16.04c0-3.38-.52-5.85-1.55-7.41-1.04-1.56-2.63-2.34-4.77-2.34s-4.09.75-5.82,2.26c-1.74,1.5-2.96,3.49-3.66,5.94v17.59h-3.77v-28.79h3.44v6.56c1.22-2.24,2.78-3.97,4.69-5.18,1.9-1.21,4.02-1.82,6.35-1.82s4.34.68,5.82,2.04c1.48,1.36,2.39,3.14,2.72,5.35,1.33-2.43,2.93-4.27,4.8-5.52,1.87-1.25,3.98-1.88,6.35-1.88,1.63,0,3,.29,4.13.88,1.13.59,2.03,1.42,2.72,2.51.68,1.08,1.18,2.39,1.5,3.92.31,1.53.47,3.23.47,5.1v16.82Z"/>
    <path class="cls-1" d="M659.85,499.64c0-1.8.52-3.35,1.55-4.66,1.04-1.3,2.47-2.32,4.3-3.03,1.83-.72,3.95-1.08,6.35-1.08,1.41,0,2.87.11,4.38.33,1.52.22,2.87.55,4.05,1v-2.43c0-2.42-.72-4.35-2.16-5.79-1.44-1.43-3.44-2.15-5.99-2.15-1.55,0-3.08.29-4.58.86s-3.06,1.41-4.69,2.52l-1.44-2.66c1.89-1.29,3.74-2.26,5.55-2.91,1.81-.65,3.66-.97,5.55-.97,3.55,0,6.36,1.01,8.43,3.03,2.07,2.02,3.11,4.82,3.11,8.38v13.28c0,.51.11.89.33,1.13.22.24.57.38,1.05.41v3c-.41.04-.76.07-1.05.11-.3.04-.52.04-.67,0-.92-.04-1.63-.33-2.11-.89-.48-.55-.74-1.15-.78-1.78l-.05-2.11c-1.29,1.66-2.98,2.95-5.05,3.85-2.07.91-4.18,1.36-6.32,1.36-1.85,0-3.52-.4-5.02-1.18-1.5-.79-2.66-1.86-3.49-3.2-.83-1.34-1.25-2.82-1.25-4.44ZM679.2,501.84c.41-.51.72-1.01.94-1.48.22-.48.33-.9.33-1.26v-4.18c-1.26-.48-2.56-.84-3.91-1.1-1.35-.26-2.71-.38-4.08-.38-2.7,0-4.88.53-6.55,1.59-1.66,1.06-2.5,2.51-2.5,4.34,0,1.06.28,2.06.83,3,.55.93,1.37,1.7,2.44,2.31,1.07.6,2.33.91,3.77.91,1.81,0,3.5-.35,5.08-1.04,1.57-.7,2.78-1.59,3.63-2.69Z"/>
    <path class="cls-1" d="M706.05,506.74c-.3.11-.76.31-1.39.61-.63.3-1.39.55-2.27.78s-1.85.33-2.88.33-2.08-.2-3.02-.61c-.94-.41-1.69-1.03-2.25-1.87-.55-.84-.83-1.87-.83-3.09v-20.78h-3.99v-3h3.99v-9.76h3.77v9.76h6.66v3h-6.66v19.73c.07,1.04.45,1.82,1.14,2.34.68.52,1.47.78,2.36.78,1.04,0,1.98-.17,2.83-.53s1.37-.6,1.55-.75l1,3.05Z"/>
    <path class="cls-1" d="M710.77,472.96v-5.55h3.77v5.55h-3.77ZM710.77,507.91v-28.9h3.77v28.9h-3.77Z"/>
    <path class="cls-1" d="M735.23,508.46c-2.11,0-4.04-.4-5.8-1.19-1.76-.79-3.27-1.88-4.55-3.25-1.28-1.38-2.27-2.96-2.97-4.74-.7-1.78-1.05-3.67-1.05-5.65s.35-3.98,1.05-5.76c.7-1.78,1.7-3.36,3-4.74,1.29-1.38,2.82-2.46,4.58-3.25,1.76-.79,3.67-1.19,5.74-1.19s3.98.4,5.71,1.19c1.74.79,3.25,1.88,4.55,3.25,1.29,1.38,2.29,2.96,3,4.74s1.05,3.71,1.05,5.76-.35,3.87-1.05,5.65c-.7,1.78-1.69,3.37-2.97,4.74-1.28,1.38-2.79,2.46-4.55,3.25-1.76.79-3.67,1.19-5.74,1.19ZM724.69,493.68c0,2.13.47,4.07,1.41,5.81.94,1.74,2.21,3.12,3.8,4.13s3.35,1.51,5.27,1.51,3.68-.51,5.27-1.54c1.59-1.03,2.87-2.43,3.83-4.21.96-1.78,1.44-3.74,1.44-5.87s-.48-4.02-1.44-5.78c-.96-1.76-2.24-3.16-3.83-4.19-1.59-1.03-3.35-1.54-5.27-1.54s-3.68.53-5.27,1.6-2.86,2.47-3.8,4.21c-.94,1.74-1.41,3.7-1.41,5.87Z"/>
    <path class="cls-1" d="M780.16,507.91h-3.77v-16.04c0-3.38-.5-5.85-1.5-7.41-1-1.56-2.57-2.34-4.72-2.34-1.48,0-2.94.36-4.38,1.07-1.44.72-2.71,1.69-3.8,2.92-1.09,1.23-1.88,2.63-2.36,4.21v17.59h-3.77v-28.79h3.44v6.56c.78-1.4,1.79-2.62,3.05-3.67,1.26-1.05,2.68-1.87,4.27-2.46,1.59-.59,3.24-.88,4.94-.88,1.59,0,2.94.29,4.05.88,1.11.59,2,1.42,2.66,2.51.67,1.08,1.15,2.39,1.44,3.92.29,1.53.44,3.23.44,5.1v16.82Z"/>
  </g>
  <g>
    <g>
      <polygon class="cls-1" points="201.79 183.97 322.28 131.77 322.28 84.61 154.45 157.23 154.52 157.41 154.52 200.6 154.52 419.24 179.79 419.24 201.77 419.24 201.77 258.5 227.41 247.38 227.41 206.38 201.77 217.49 201.77 200.6 201.79 183.97"/>
      <polyline class="cls-1" points="154.54 258.5 128.9 247.38 128.9 206.38 154.54 217.49"/>
    </g>
    <path class="cls-1" d="M266.53,80.62c-13.86-35.28-48.29-60.29-88.38-60.29-52.32,0-94.87,42.55-94.87,94.87,0,6.66.65,13.26,2,19.66-31.23,16.04-51.28,48.24-51.28,84.4,0,52.32,42.55,94.87,94.87,94.87v-32.34c-34.47,0-62.54-28.07-62.54-62.54,0-27.42,17.46-51.41,43.52-59.69l16.62-5.3-6.47-16.17c-2.91-7.24-4.4-14.94-4.4-22.89,0-34.47,28.07-62.54,62.54-62.54,26.83,0,49.81,17.04,58.69,40.82l29.69-12.87Z"/>
    <path class="cls-1" d="M306.42,166.61l-30.41,13.18c8.83,10.85,13.95,24.64,13.95,39.46,0,34.47-28.07,62.54-62.54,62.54v32.34c52.32,0,94.87-42.55,94.87-94.87,0-19.3-5.73-37.45-15.88-52.65Z"/>
  </g>
</svg>