<?xml version="1.0" encoding="UTF-8"?>
<svg id="Calque_1" data-name="Calque 1" xmlns="http://www.w3.org/2000/svg" version="1.1" viewBox="0 0 501.31 501.31">
  <defs>
    <style>
      .cls-1 {
        fill: #717343;
      }

      .cls-1, .cls-2 {
        stroke-width: 0px;
      }

      .cls-2 {
        fill: #fff;
      }
    </style>
  </defs>
  <rect class="cls-1" width="501.31" height="501.31" rx="67.08" ry="67.08"/>
  <g>
    <g>
      <polygon class="cls-2" points="269.88 221.54 367.82 179.11 367.82 140.78 231.39 199.81 231.45 199.95 231.45 235.06 231.45 412.79 251.99 412.79 269.85 412.79 269.85 282.13 290.7 273.09 290.7 239.76 269.85 248.8 269.85 235.06 269.88 221.54"/>
      <polyline class="cls-2" points="231.47 282.13 210.62 273.09 210.62 239.76 231.47 248.8"/>
    </g>
    <path class="cls-2" d="M322.5,137.53c-11.26-28.68-39.26-49.01-71.84-49.01-42.53,0-77.12,34.59-77.12,77.12,0,5.41.52,10.78,1.63,15.98-25.39,13.04-41.69,39.22-41.69,68.6,0,42.53,34.59,77.12,77.12,77.12v-26.29c-28.02,0-50.84-22.82-50.84-50.83,0-22.29,14.19-41.79,35.38-48.52l13.51-4.31-5.26-13.14c-2.37-5.89-3.57-12.14-3.57-18.61,0-28.02,22.81-50.84,50.83-50.84,21.81,0,40.49,13.85,47.71,33.19l24.13-10.46Z"/>
    <path class="cls-2" d="M354.93,207.43l-24.72,10.72c7.18,8.82,11.34,20.03,11.34,32.08,0,28.02-22.82,50.83-50.84,50.83v26.29c42.53,0,77.12-34.59,77.12-77.12,0-15.69-4.66-30.44-12.91-42.79Z"/>
  </g>
</svg>