<?xml version="1.0" encoding="UTF-8"?>
<svg xmlns="http://www.w3.org/2000/svg" xmlns:xlink="http://www.w3.org/1999/xlink" width="16px" height="16px" viewBox="0 0 16 16" version="1.1">
<g id="surface1">
<path style=" stroke:none;fill-rule:nonzero;fill:rgb(44.313725%,45.098039%,26.27451%);fill-opacity:1;" d="M 9.085938 6.855469 L 14.625 5.183594 L 14.625 3.675781 L 6.910156 6 L 6.914062 6.003906 L 6.914062 14.382812 L 9.085938 14.382812 L 9.085938 9.238281 L 10.265625 8.882812 L 10.265625 7.570312 L 9.085938 7.925781 Z M 9.085938 6.855469 "/>
<path style=" stroke:none;fill-rule:nonzero;fill:rgb(44.313725%,45.098039%,26.27451%);fill-opacity:1;" d="M 6.914062 9.238281 L 5.734375 8.882812 L 5.734375 7.570312 L 6.914062 7.925781 "/>
<path style=" stroke:none;fill-rule:nonzero;fill:rgb(94.901961%,67.45098%,16.078431%);fill-opacity:1;" d="M 12.0625 3.546875 C 11.425781 2.417969 9.84375 1.617188 8 1.617188 C 5.59375 1.617188 3.640625 2.980469 3.640625 4.652344 C 3.640625 4.867188 3.667969 5.078125 3.730469 5.28125 C 2.296875 5.796875 1.375 6.824219 1.375 7.984375 C 1.375 9.65625 3.328125 11.019531 5.734375 11.019531 L 5.734375 9.984375 C 4.148438 9.984375 2.859375 9.085938 2.859375 7.984375 C 2.859375 7.105469 3.664062 6.335938 4.859375 6.074219 L 5.625 5.902344 L 5.328125 5.386719 C 5.191406 5.152344 5.125 4.90625 5.125 4.652344 C 5.125 3.550781 6.414062 2.652344 8 2.652344 C 9.234375 2.652344 10.289062 3.199219 10.699219 3.957031 Z M 12.0625 3.546875 "/>
<path style=" stroke:none;fill-rule:nonzero;fill:rgb(94.901961%,67.45098%,16.078431%);fill-opacity:1;" d="M 13.898438 6.296875 L 12.5 6.71875 C 12.90625 7.066406 13.140625 7.507812 13.140625 7.984375 C 13.140625 9.085938 11.851562 9.984375 10.265625 9.984375 L 10.265625 11.019531 C 12.671875 11.019531 14.625 9.65625 14.625 7.984375 C 14.625 7.367188 14.363281 6.785156 13.898438 6.296875 Z M 13.898438 6.296875 "/>
</g>
</svg>
